<svg width="719" height="141" viewBox="0 0 719 141" fill="none" xmlns="http://www.w3.org/2000/svg">
<g filter="url(#filter0_d_119_3477)">
<path d="M0 70.2782C0 48.8721 0 38.1691 3.40035 29.6922C8.20803 17.7068 17.7068 8.20803 29.6922 3.40035C38.1691 0 48.8721 0 70.2782 0H648.722C670.128 0 680.831 0 689.308 3.40035C701.293 8.20803 710.792 17.7068 715.6 29.6922C719 38.1691 719 48.8721 719 70.2782V70.2782C719 91.6843 719 102.387 715.6 110.864C710.792 122.85 701.293 132.348 689.308 137.156C680.831 140.556 670.128 140.556 648.722 140.556H70.2782C48.8721 140.556 38.1691 140.556 29.6922 137.156C17.7068 132.348 8.20803 122.85 3.40035 110.864C0 102.387 0 91.6843 0 70.2782V70.2782Z" fill="white"/>
<path d="M70.2783 0.675781H648.722C659.434 0.675781 667.435 0.6764 673.818 1.09961C679.798 1.49603 684.316 2.26144 688.272 3.72559L689.057 4.02734C700.686 8.69232 709.94 17.8381 714.747 29.3916L714.973 29.9434C716.635 34.0881 717.478 38.8039 717.9 45.1816C718.324 51.5652 718.324 59.5664 718.324 70.2783C718.324 80.9903 718.324 88.9914 717.9 95.375C717.504 101.354 716.738 105.872 715.274 109.828L714.973 110.612C710.308 122.242 701.162 131.497 689.608 136.304L689.057 136.529C684.912 138.192 680.196 139.034 673.818 139.457C667.435 139.88 659.434 139.881 648.722 139.881H70.2783C59.5664 139.881 51.5652 139.88 45.1816 139.457C38.8039 139.034 34.0881 138.192 29.9434 136.529C18.1293 131.79 8.76632 122.426 4.02734 110.612C2.36488 106.468 1.52243 101.753 1.09961 95.375C0.676392 88.9914 0.675781 80.9903 0.675781 70.2783C0.675781 59.5664 0.676401 51.5652 1.09961 45.1816C1.52244 38.8039 2.36477 34.0881 4.02734 29.9434C8.76634 18.1294 18.1294 8.76634 29.9434 4.02734C34.0881 2.36477 38.8039 1.52244 45.1816 1.09961C51.5652 0.676401 59.5664 0.675781 70.2783 0.675781Z" stroke="#EFF0F6" stroke-width="1.3515"/>
</g>
<defs>
<filter id="filter0_d_119_3477" x="-27.0301" y="-20.2726" width="773.06" height="194.615" filterUnits="userSpaceOnUse" color-interpolation-filters="sRGB">
<feFlood flood-opacity="0" result="BackgroundImageFix"/>
<feColorMatrix in="SourceAlpha" type="matrix" values="0 0 0 0 0 0 0 0 0 0 0 0 0 0 0 0 0 0 127 0" result="hardAlpha"/>
<feOffset dy="6.75752"/>
<feGaussianBlur stdDeviation="13.515"/>
<feComposite in2="hardAlpha" operator="out"/>
<feColorMatrix type="matrix" values="0 0 0 0 0 0 0 0 0 0 0 0 0 0 0 0 0 0 0.05 0"/>
<feBlend mode="normal" in2="BackgroundImageFix" result="effect1_dropShadow_119_3477"/>
<feBlend mode="normal" in="SourceGraphic" in2="effect1_dropShadow_119_3477" result="shape"/>
</filter>
</defs>
</svg>
