<svg width="14" height="19" viewBox="0 0 14 19" fill="none" xmlns="http://www.w3.org/2000/svg">
<path d="M6.99934 0C6.53934 0 6.06934 0.0400001 5.59934 0.14C2.83934 0.67 0.639339 2.9 0.119339 5.66C-0.360661 8.27 0.599339 10.67 2.33934 12.22C2.76934 12.6 2.99934 13.13 2.99934 13.69V16C2.99934 17.1 3.89934 18 4.99934 18H5.27934C5.62934 18.6 6.25934 19 6.99934 19C7.73934 19 8.37934 18.6 8.71934 18H8.99934C10.0993 18 10.9993 17.1 10.9993 16V13.69C10.9993 13.14 11.2193 12.6 11.6393 12.23C13.0893 10.95 13.9993 9.08 13.9993 7C13.9993 3.13 10.8693 0 6.99934 0ZM7.49934 11H6.49934V8.41L4.66934 6.59L5.37934 5.88L6.99934 7.5L8.61934 5.88L9.32934 6.59L7.49934 8.42V11V11ZM8.49934 16C8.48934 16 8.47934 15.99 8.46934 15.99V16H5.52934V15.99C5.51934 15.99 5.50934 16 5.49934 16C5.21934 16 4.99934 15.78 4.99934 15.5C4.99934 15.22 5.21934 15 5.49934 15C5.50934 15 5.51934 15.01 5.52934 15.01V15H8.46934V15.01C8.47934 15.01 8.48934 15 8.49934 15C8.77934 15 8.99934 15.22 8.99934 15.5C8.99934 15.78 8.77934 16 8.49934 16ZM8.49934 14H5.49934C5.21934 14 4.99934 13.78 4.99934 13.5C4.99934 13.22 5.21934 13 5.49934 13H8.49934C8.77934 13 8.99934 13.22 8.99934 13.5C8.99934 13.78 8.77934 14 8.49934 14Z" fill="black" fill-opacity="0.7"/>
</svg>
