<svg width="22" height="12" viewBox="0 0 22 12" fill="none" xmlns="http://www.w3.org/2000/svg">
<path d="M15.665 0.85L17.2052 2.29L11.9857 7.17L8.46684 3.88C8.04971 3.49 7.37588 3.49 6.95875 3.88L0.541363 9.89C0.124233 10.28 0.124233 10.91 0.541363 11.3C0.958494 11.69 1.63232 11.69 2.04945 11.3L7.70745 6L11.2263 9.29C11.6434 9.68 12.3173 9.68 12.7344 9.29L18.7133 3.71L20.2534 5.15C20.585 5.46 21.1626 5.24 21.1626 4.8V0.5C21.1733 0.22 20.938 0 20.6385 0H16.0501C15.5688 0 15.3334 0.54 15.665 0.85Z" fill="black" fill-opacity="0.7"/>
</svg>
