<!--?xml version="1.0" encoding="UTF-8"?-->
<svg width="64" height="64" viewBox="0 0 64 64" fill="none" xmlns="http://www.w3.org/2000/svg" role="img" aria-labelledby="title desc">
  <title id="title">TDS Icon</title>
  <desc id="desc">Water droplet icon representing total dissolved solids measurement</desc>

  <!-- 배경 원 -->
  <defs>
    <linearGradient id="tdsBg" x1="10" y1="8" x2="54" y2="56" gradientUnits="userSpaceOnUse">
      <stop stop-color="#E5F5FF"></stop>
      <stop offset="1" stop-color="#D7F0FF"></stop>
    </linearGradient>
  </defs>
  <circle cx="32" cy="32" r="28" fill="url(#tdsBg)"></circle>
  <circle cx="32" cy="32" r="28" stroke="#B3E5FF" stroke-width="2"></circle>

  <!-- 물방울 형태 -->
  <path d="M32 14C28 22 20 28 20 38C20 45 25.5 50 32 50C38.5 50 44 45 44 38C44 28 36 22 32 14Z" fill="#91D5FF" stroke="#2F54EB" stroke-width="2" stroke-linejoin="round"></path>

  <!-- 내부 물결 (용존 입자 표현) -->
  <path d="M24 37c2 1.5 5 2.5 8 2.5s6-1 8-2.5" stroke="#2F54EB" stroke-width="2" stroke-linecap="round"></path>
  <path d="M25 41c2 1.3 4.8 2.3 7 2.3s5-0.8 7-2.3" stroke="#2F54EB" stroke-width="1.8" stroke-linecap="round" opacity="0.8"></path>

  <!-- 하단 텍스트 -->
  <text x="32" y="57" text-anchor="middle" font-family="Inter, system-ui, -apple-system, Segoe UI, Roboto, Helvetica, Arial" font-size="12" font-weight="700" fill="#0050B3" letter-spacing="0.5">
    TDS
  </text>
</svg>
